<svg width="307" height="104" viewBox="0 0 307 104" fill="none" xmlns="http://www.w3.org/2000/svg">
<g opacity="0.4">
<path opacity="0.6" d="M153.589 99.3262C140.43 99.3262 131.495 89.6718 131.495 75.9266V40.0903H194.852V22.909H131.495V0H112V76.9087C112 100.8 128.896 117 153.59 117C178.138 117 194.397 100.932 195 77.2982H175.492C174.916 90.3095 166.149 99.3262 153.589 99.3262Z" fill="#CCD4E1"/>
<path opacity="0.6" fill-rule="evenodd" clip-rule="evenodd" d="M307 77.4593H228.713C232.275 89.8128 243.341 97.6707 257.428 97.6697H295.121L295.006 115H257.312C227.977 115 207 95.8674 207 68.8194C207 40.286 227.976 20 257.312 20C283.386 20 302.52 36.2092 306.288 60.0281H306.322L306.334 60.3288C306.75 63.0645 306.969 65.8991 306.969 68.8204V76.5723H306.966L307 77.4593ZM285.896 59.2763C282.443 46.3547 271.608 37.6482 257.311 37.6482C242.868 37.6482 231.884 46.3467 228.541 59.2561C228.493 59.4405 228.45 59.6275 228.407 59.8149C228.391 59.8859 228.375 59.9571 228.358 60.0281H286.081C286.069 59.9779 286.057 59.9277 286.045 59.8776C285.997 59.6763 285.949 59.475 285.896 59.2763Z" fill="#CCD4E1"/>
<path opacity="0.6" d="M54.6481 99.4684C37.3444 99.4684 25.0534 86.3599 25.0534 68.5005C25.0534 50.6411 37.3444 37.5326 54.6481 37.5326C65.5925 37.5326 74.5263 42.6493 79.6181 51.009L97.5738 43.744C89.5147 29.1307 74.0237 20 54.6481 20C25.7005 20 5 40.1531 5 68.4995C5 96.8459 25.7005 117 54.6481 117C80.4334 117 99.339 100.828 103 77.0818H83.2494C80.0109 90.5784 69.0764 99.4684 54.6481 99.4684Z" fill="#CCD4E1"/>
</g>
</svg>
